<svg xmlns="http://www.w3.org/2000/svg" xmlns:xlink="http://www.w3.org/1999/xlink" version="1.1" width="1000" height="1000" viewBox="0 0 1000 1000" xml:space="preserve">
<desc>Created with Fabric.js 3.5.0</desc>
<defs>
</defs>
<rect x="0" y="0" width="100%" height="100%" fill="rgba(255,255,255,0)"/>
<g transform="matrix(0.6944 0 0 0.6944 499.9776 614.1456)" id="823047">
<g style="" vector-effect="non-scaling-stroke">
		<g transform="matrix(0.1333 0 0 -0.1333 -339.778 -60.7353)">
<path style="stroke: none; stroke-width: 1; stroke-dasharray: none; stroke-linecap: butt; stroke-dashoffset: 0; stroke-linejoin: miter; stroke-miterlimit: 4; is-custom-font: none; font-file-url: none; fill: rgb(0,0,0); fill-rule: nonzero; opacity: 1;" transform=" translate(-1231.9231, -3720.1246)" d="M 1010 5260 c -413 -88 -722 -418 -799 -854 c -6 -33 -11 -110 -11 -171 c 0 -206 28 -301 170 -580 c 543 -1067 717 -1405 737 -1433 c 34 -46 77 -65 133 -60 c 90 9 42 -72 558 933 c 335 654 400 787 426 877 c 101 350 7 721 -248 986 c -205 214 -465 323 -763 321 c -74 0 -150 -7 -203 -19 z m 370 -517 c 325 -88 484 -458 329 -765 c -40 -79 -144 -183 -226 -226 c -212 -111 -471 -67 -637 108 c -101 107 -146 219 -146 365 c 0 153 51 277 160 385 c 137 136 329 185 520 133 z" stroke-linecap="round"/>
</g>
		<g transform="matrix(0.1333 0 0 -0.1333 329.9287 -60.7085)">
<path style="stroke: none; stroke-width: 1; stroke-dasharray: none; stroke-linecap: butt; stroke-dashoffset: 0; stroke-linejoin: miter; stroke-miterlimit: 4; is-custom-font: none; font-file-url: none; fill: rgb(0,0,0); fill-rule: nonzero; opacity: 1;" transform=" translate(-6254.7239, -3719.9243)" d="M 6040 5260 c -212 -45 -374 -134 -517 -284 c -281 -293 -376 -725 -239 -1089 c 21 -57 346 -707 426 -852 c 15 -27 110 -212 211 -410 c 100 -198 190 -372 199 -387 c 56 -93 189 -104 248 -21 c 11 16 167 316 347 668 c 180 352 365 713 411 803 c 157 307 192 502 137 772 c -82 408 -409 725 -831 806 c -102 19 -287 17 -392 -6 z m 370 -520 c 263 -76 429 -366 365 -638 c -57 -239 -279 -413 -529 -412 c -164 1 -345 97 -435 230 c -171 257 -106 594 146 756 c 139 90 290 111 453 64 z" stroke-linecap="round"/>
</g>
		<g transform="matrix(0.1333 0 0 -0.1333 -4.0282 62.5945)">
<path style="stroke: none; stroke-width: 1; stroke-dasharray: none; stroke-linecap: butt; stroke-dashoffset: 0; stroke-linejoin: miter; stroke-miterlimit: 4; is-custom-font: none; font-file-url: none; fill: rgb(0,0,0); fill-rule: nonzero; opacity: 1;" transform=" translate(-3750.1862, -2795.3864)" d="M 2734 3409 c -23 -7 -105 -84 -290 -273 c -141 -146 -263 -275 -270 -288 c -18 -31 -17 -83 0 -116 c 8 -15 133 -145 278 -289 c 276 -275 271 -271 347 -264 c 46 4 82 31 102 75 c 32 74 18 100 -144 264 l -141 142 l 1134 0 l 1135 0 l -142 -142 c -145 -147 -163 -175 -155 -239 c 2 -14 15 -41 30 -58 c 22 -26 37 -34 74 -38 c 26 -3 59 -2 75 1 c 31 8 534 501 559 548 c 18 34 18 81 0 116 c -18 33 -522 534 -555 552 c -57 29 -142 5 -175 -50 c -18 -32 -21 -91 -5 -123 c 6 -12 72 -84 147 -159 l 137 -138 l -1135 0 l -1134 0 l 146 148 c 107 108 148 156 153 179 c 20 94 -75 178 -171 152 z" stroke-linecap="round"/>
</g>
</g>
</g>
<g transform="matrix(1 0 0 1 500 309.3666)" style="" id="749368">
		
<path xml:space="preserve" font-family="Varela Round" font-size="220" font-style="normal" font-weight="normal" style="stroke: none; stroke-width: 1; stroke-dasharray: none; stroke-linecap: butt; stroke-dashoffset: 0; stroke-linejoin: miter; stroke-miterlimit: 4; is-custom-font: none; font-file-url: none; fill: rgb(0,0,0); fill-rule: nonzero; opacity: 1; white-space: pre;" d="M-214.50 70.21Q-218.90 70.21-221.65 67.35Q-224.40 64.49-224.40 60.31L-224.40 60.31Q-224.40 58.55-223.30 55.91L-223.30 55.91L-167.20-76.53Q-165.44-80.49-162.25-83.02Q-159.06-85.55-154.44-85.55L-154.44-85.55L-152.24-85.55Q-147.62-85.55-144.43-83.02Q-141.24-80.49-139.48-76.53L-139.48-76.53L-83.38 55.91Q-82.28 58.55-82.28 60.31L-82.28 60.31Q-82.28 64.49-85.03 67.35Q-87.78 70.21-92.18 70.21L-92.18 70.21Q-95.26 70.21-97.79 68.56Q-100.32 66.91-101.64 64.05L-101.64 64.05L-115.94 29.73L-190.74 29.73L-205.04 64.05Q-206.36 66.91-208.89 68.56Q-211.42 70.21-214.50 70.21L-214.50 70.21ZM-153.34-60.03L-183.04 11.47L-123.64 11.47L-153.34-60.03ZM-7.04 70.21Q-16.06 70.21-20.68 60.09L-20.68 60.09L-75.02-71.69Q-75.68-73.45-75.68-75.43L-75.68-75.43Q-75.68-80.05-73.04-82.80Q-70.40-85.55-65.78-85.55L-65.78-85.55Q-62.70-85.55-60.17-83.68Q-57.64-81.81-56.32-78.73L-56.32-78.73L-4.62 50.19L47.08-78.73Q48.40-81.81 50.93-83.68Q53.46-85.55 56.54-85.55L56.54-85.55Q61.16-85.55 63.80-82.80Q66.44-80.05 66.44-75.43L66.44-75.43Q66.44-73.45 65.78-71.69L65.78-71.69L11.44 60.09Q6.82 70.21-2.20 70.21L-2.20 70.21L-7.04 70.21ZM158.18 71.31Q135.52 71.31 117.92 61.30Q100.32 51.29 90.64 33.36Q80.96 15.43 80.96-7.45L80.96-7.45Q80.96-30.77 91.08-48.81Q101.20-66.85 118.69-76.75Q136.18-86.65 157.52-86.65L157.52-86.65Q174.68-86.65 187.55-82.47Q200.42-78.29 212.30-70.81L212.30-70.81Q214.06-69.93 215.38-67.73Q216.70-65.53 216.70-62.89L216.70-62.89Q216.70-59.15 214.17-56.51Q211.64-53.87 207.46-53.87L207.46-53.87Q205.04-53.87 202.84-54.97L202.84-54.97Q192.50-61.13 182.16-64.21Q171.82-67.29 159.72-67.29L159.72-67.29Q143-67.29 129.58-60.25Q116.16-53.21 108.57-39.68Q100.98-26.15 100.98-7.45L100.98-7.45Q100.98 9.71 108.13 23.24Q115.28 36.77 128.81 44.58Q142.34 52.39 160.82 52.39L160.82 52.39Q181.50 52.39 199.32 42.71L199.32 42.71L199.32 2.89L163.02 2.89Q159.28 2.89 156.64 0.25Q154-2.39 154-6.13L154-6.13Q154-9.87 156.64-12.51Q159.28-15.15 163.02-15.15L163.02-15.15L206.36-15.15Q210.76-15.15 213.84-12.07Q216.92-8.99 216.92-4.59L216.92-4.59L216.92 45.35Q216.92 49.97 214.61 53.60Q212.30 57.23 208.56 58.99L208.56 58.99Q183.92 71.31 158.18 71.31L158.18 71.31Z"/></g>
</svg>