<svg xmlns="http://www.w3.org/2000/svg" xmlns:xlink="http://www.w3.org/1999/xlink" version="1.1" width="1000" height="1000" viewBox="0 0 1000 1000" xml:space="preserve">
<desc>Created with Fabric.js 3.5.0</desc>
<defs>
</defs>
<rect x="0" y="0" width="100%" height="100%" fill="rgba(255,255,255,0)"/>
<g transform="matrix(-3.2071 0 0 3.2071 499.9968 499.9968)" id="316271">
<g style="" vector-effect="non-scaling-stroke">
		<g transform="matrix(1 0 0 1 0.005 0.005)">
<path style="stroke: none; stroke-width: 1; stroke-dasharray: none; stroke-linecap: butt; stroke-dashoffset: 0; stroke-linejoin: miter; stroke-miterlimit: 4; is-custom-font: none; font-file-url: none; fill: rgb(255,255,255); fill-opacity: 0; fill-rule: nonzero; opacity: 1;" transform=" translate(-141.735, -141.735)" d="M 0 247.94 c 0 19.65 15.87 35.53 35.53 35.53 h 212.79 c 19.28 0 35.15 -15.87 35.15 -35.53 V 35.15 C 283.47 15.88 267.59 0 248.31 0 H 35.53 C 15.87 0 0 15.88 0 35.15 v 212.79 z" stroke-linecap="round"/>
</g>
		<g transform="matrix(1 0 0 1 16.14 48.75)">
<path style="stroke: none; stroke-width: 1; stroke-dasharray: none; stroke-linecap: butt; stroke-dashoffset: 0; stroke-linejoin: miter; stroke-miterlimit: 4; is-custom-font: none; font-file-url: none; fill: rgb(0,0,0); fill-rule: nonzero; opacity: 1;" transform=" translate(-157.87, -190.48)" d="M 229.38 228.31 c 0 0.19 -0.01 0.37 0 0.56 c 0.01 0.11 0.03 0.22 0.05 0.32 h 10.68 V 158.8 c 0 -1.21 -0.05 -2.41 -0.25 -3.6 c -0.82 -4.8 -3.01 -8.87 -6.67 -12.1 c -3.89 -3.44 -8.46 -5.18 -13.66 -5.19 h -87.38 c -1.94 0 -3.85 0.23 -5.72 0.77 c -8.93 2.56 -14.99 10.59 -14.99 19.9 v 70.6 h 10.76 v -48.32 c 0 -7.48 0.01 -14.97 0 -22.45 c -0.01 -3.81 2.35 -7.52 6.17 -9.08 c 1.34 -0.55 2.74 -0.71 4.18 -0.71 h 86.82 c 2.53 0 4.77 0.79 6.66 2.47 c 2.24 2 3.34 4.52 3.34 7.52 c 0.01 23.25 0.01 46.47 0.01 69.7 m -107.26 7.8 h -10.49 c -1.41 0 -2.56 1.14 -2.56 2.54 v 1.85 a 2.55 2.55 0 0 0 2.56 2.55 h 10.49 c 1.41 0 2.56 -1.14 2.56 -2.55 v -1.85 c 0 -1.4 -1.15 -2.54 -2.56 -2.54 m 117.96 0 h -10.49 c -1.41 0 -2.56 1.14 -2.56 2.54 v 1.85 c 0 1.41 1.15 2.55 2.56 2.55 h 10.49 c 1.41 0 2.56 -1.14 2.56 -2.55 v -1.85 c 0 -1.4 -1.15 -2.54 -2.56 -2.54 M 86.14 188.47 H 75.66 c -1.41 0 -2.56 1.14 -2.56 2.55 v 1.85 a 2.55 2.55 0 0 0 2.56 2.55 h 10.49 c 1.41 0 2.56 -1.14 2.56 -2.55 v -1.85 a 2.571 2.571 0 0 0 -2.57 -2.55" stroke-linecap="round"/>
</g>
		<g transform="matrix(1 0 0 1 -19.095 1.14)">
<path style="stroke: none; stroke-width: 1; stroke-dasharray: none; stroke-linecap: butt; stroke-dashoffset: 0; stroke-linejoin: miter; stroke-miterlimit: 4; is-custom-font: none; font-file-url: none; fill: rgb(0,0,0); fill-rule: nonzero; opacity: 1;" transform=" translate(-122.635, -142.87)" d="M 204.1 188.47 h -10.49 c -1.41 0 -2.56 1.14 -2.56 2.55 v 1.85 c 0 1.41 1.15 2.55 2.56 2.55 h 10.49 c 1.41 0 2.56 -1.14 2.56 -2.55 v -1.85 c 0 -1.41 -1.15 -2.55 -2.56 -2.55 M 51.65 142.4 H 41.17 c -1.41 0 -2.56 1.14 -2.56 2.55 v 1.85 a 2.55 2.55 0 0 0 2.56 2.55 h 10.49 c 1.41 0 2.56 -1.14 2.56 -2.55 v -1.85 a 2.571 2.571 0 0 0 -2.57 -2.55 m 142 39.19 h 10.68 V 155.31 H 193.6 v 25.4 c 0 0.19 -0.01 0.37 0 0.56 c 0 0.12 0.03 0.23 0.05 0.32 m -10.47 -80.55 h 0.41 c 2.53 0 4.77 0.79 6.66 2.47 c 2.24 2 3.34 4.52 3.34 7.52 v 20.18 h 10.73 v -20 c 0 -1.21 -0.05 -2.41 -0.25 -3.6 c -0.82 -4.8 -3.01 -8.87 -6.66 -12.1 c -3.89 -3.44 -8.47 -5.18 -13.66 -5.19 H 96.37 c -1.94 0 -3.85 0.23 -5.72 0.77 c -8.93 2.56 -14.99 10.59 -14.99 19.9 v 70.6 h 10.76 v -48.32 c 0 -7.48 0.01 -14.97 0 -22.45 c -0.01 -3.81 2.35 -7.52 6.17 -9.08 c 1.34 -0.55 2.74 -0.71 4.18 -0.71 c 28.03 0.01 58.38 0.01 86.41 0.01" stroke-linecap="round"/>
</g>
		<g transform="matrix(1 0 0 1 -36.515 -51.8085)">
<path style="stroke: none; stroke-width: 1; stroke-dasharray: none; stroke-linecap: butt; stroke-dashoffset: 0; stroke-linejoin: miter; stroke-miterlimit: 4; is-custom-font: none; font-file-url: none; fill: rgb(0,0,0); fill-rule: nonzero; opacity: 1;" transform=" translate(-105.215, -89.9215)" d="M 148.41 55 h 0.41 c 2.53 0 4.77 0.79 6.66 2.47 c 2.24 2 3.34 4.52 3.34 7.52 v 18.62 h 10.73 V 65.18 c 0 -1.21 -0.05 -2.41 -0.25 -3.6 c -0.82 -4.8 -3.01 -8.87 -6.67 -12.1 c -3.89 -3.44 -8.46 -5.18 -13.66 -5.19 c -15.13 -0.02 -74.16 0.01 -87.38 0 c -1.94 0 -3.85 0.23 -5.72 0.77 c -8.93 2.56 -14.99 10.59 -14.99 19.9 v 70.6 h 10.76 V 87.24 c 0 -7.48 0.01 -14.97 0 -22.45 c -0.01 -3.81 2.34 -7.52 6.17 -9.08 c 1.35 -0.54 2.75 -0.71 4.19 -0.71 c 28.03 0.01 58.38 0 86.41 0 m 21.14 76.21 V 107.7 h -10.73 v 23.51 h 10.73 z" stroke-linecap="round"/>
</g>
</g>
</g>
</svg>