<svg xmlns="http://www.w3.org/2000/svg" xmlns:xlink="http://www.w3.org/1999/xlink" version="1.1" width="1000" height="1000" viewBox="0 0 1000 1000" xml:space="preserve">
<desc>Created with Fabric.js 3.5.0</desc>
<defs>
</defs>
<rect x="0" y="0" width="100%" height="100%" fill="rgba(255,255,255,0)"/>
<g transform="matrix(3.0064 0 0 3.0064 499.9965 518.8644)" id="244078">
<g style="" vector-effect="non-scaling-stroke">
		<g transform="matrix(1 0 0 1 0.005 0.005)">
<path style="stroke: none; stroke-width: 1; stroke-dasharray: none; stroke-linecap: butt; stroke-dashoffset: 0; stroke-linejoin: miter; stroke-miterlimit: 4; is-custom-font: none; font-file-url: none; fill: rgb(252,185,25); fill-opacity: 0; fill-rule: nonzero; opacity: 1;" transform=" translate(-141.735, -141.735)" d="M 0 247.94 c 0 19.65 15.87 35.53 35.53 35.53 h 212.79 c 19.28 0 35.15 -15.87 35.15 -35.53 V 35.15 C 283.47 15.88 267.59 0 248.31 0 H 35.53 C 15.87 0 0 15.88 0 35.15 v 212.79 z" stroke-linecap="round"/>
</g>
		<g transform="matrix(1 0 0 1 12.5462 -20.6551)">
<path style="stroke: none; stroke-width: 1; stroke-dasharray: none; stroke-linecap: butt; stroke-dashoffset: 0; stroke-linejoin: miter; stroke-miterlimit: 4; is-custom-font: none; font-file-url: none; fill: rgb(0,0,0); fill-rule: nonzero; opacity: 1;" transform=" translate(-154.2762, -121.0749)" d="M 155.24 195.36 c 4.72 -6.4 14.06 -19.08 18.55 -25.19 l 11.45 22.36 c 4.56 9.82 11.35 18.4 15.77 22.76 c 1.68 1.72 3.31 2.07 4.37 2.07 c 1.85 0 3.53 -1.1 4.27 -2.79 c 0.81 -1.85 0.35 -3.97 -1.23 -5.69 c -5.08 -5.42 -10.8 -12.08 -14.74 -20.33 l -12.16 -23.5 c -0.37 -0.95 -0.53 -1.94 -0.47 -2.93 a 6.93 6.93 0 0 1 1.14 -3.4 l 0.85 -1.2 c 0.28 -0.38 0.71 -0.9 1.12 -1.41 c 0.38 -0.46 0.87 -1.09 1.11 -1.42 h 0.01 c 3.97 -5.39 4.86 -6.83 5.96 -11.06 c 1.1 -4.15 0.44 -8.13 -1.85 -11.22 a 13.831 13.831 0 0 0 -7.08 -5.03 c 0.28 -3.69 -1.16 -7.47 -3.9 -9.68 l -40.3 -31.96 c -10.76 -8.51 -26.04 -3.23 -30.27 8.43 l -9.33 32.52 l 33.14 9.62 l 6.01 -21.47 l 26.13 19.46 c 2.46 1.83 4.61 2.74 6.45 3.04 c 2.39 0.47 5.11 -0.43 7.03 -1.58 l 0.26 -0.21 c 0.13 0.01 0.26 0.02 0.36 0.02 h 0.15 c 1.99 0.05 3.01 0.97 3.6 1.65 c 0.82 0.96 1.36 2.85 0.81 4.6 c -0.42 1.3 -0.57 2.15 -4.43 7.53 c -0.78 1.02 -3.16 3.98 -3.77 4.83 c -0.46 0.63 -0.86 1.16 -1.89 2.56 l -0.37 0.51 H 139.5 l 10.26 9.1 h 15.55 c -2.21 3 -6.81 9.24 -9.26 12.56 l -0.81 16.45 z M 137.13 73.8 c 13.48 -0.07 24.46 -11.15 24.39 -24.63 c -0.07 -13.47 -11.16 -24.44 -24.64 -24.38 c -13.47 0.07 -24.43 11.15 -24.36 24.63 c 0.07 13.47 11.15 24.45 24.61 24.38" stroke-linecap="round"/>
</g>
		<g transform="matrix(1 0 0 1 17.7824 50.57)">
<path style="stroke: none; stroke-width: 1; stroke-dasharray: none; stroke-linecap: butt; stroke-dashoffset: 0; stroke-linejoin: miter; stroke-miterlimit: 4; is-custom-font: none; font-file-url: none; fill: rgb(0,0,0); fill-rule: nonzero; opacity: 1;" transform=" translate(-159.5124, -192.3)" d="M 130.35 140.59 l -33.32 -9.44 c -4.38 10.67 -4.57 18.85 3.32 26.28 l 8.13 7.95 l 0.13 0.12 l -33.88 44.33 c -1.52 1.99 -1.14 4.86 0.85 6.38 c 0.53 0.41 1.16 0.67 1.98 0.82 c 0.05 0.01 0.1 0.02 0.14 0.02 c 0.06 0.01 0.11 0.02 0.18 0.03 l 0.06 0.01 c 0.03 0 0.07 0.01 0.1 0.02 c 0.1 0.02 0.2 0.04 0.31 0.04 c 0.03 0 0.06 0 0.1 -0.01 c 0.04 0.01 0.07 0.01 0.12 0.01 h 46.58 l -0.34 5.77 l 23.22 2.38 l 3.24 -49.93 l -24.39 -21.57 l 3.47 -13.21 z M 115.09 172 l 0.12 -0.06 l 11.94 10.86 l -1.47 25.2 v 0.05 H 87.55 L 115.09 172 z m 129.96 37.1 c -0.93 -10.09 -5.58 -19.42 -13.11 -26.28 c -7.52 -6.85 -17.21 -10.63 -27.3 -10.63 c -1.25 0 -2.52 0.06 -3.77 0.18 c -2.23 0.2 -4.44 0.59 -6.58 1.14 l 4.05 8.4 c 1.1 -0.22 2.23 -0.38 3.36 -0.49 c 0.71 -0.07 1.44 -0.11 2.16 -0.13 c 0.26 -0.01 0.51 -0.01 0.77 -0.01 c 7.83 0 15.35 2.93 21.19 8.25 c 5.84 5.33 9.46 12.57 10.18 20.4 c 0.78 8.37 -1.77 16.56 -7.16 23.05 c -5.39 6.48 -12.98 10.47 -21.36 11.23 c -0.98 0.09 -1.98 0.14 -2.96 0.14 c -7.82 0 -15.34 -2.93 -21.16 -8.25 c -5.83 -5.33 -9.44 -12.57 -10.16 -20.4 a 31.443 31.443 0 0 1 5.44 -20.78 l -4.61 -8.87 c -0.22 0.26 -0.45 0.52 -0.66 0.78 c -6.94 8.35 -10.22 18.9 -9.22 29.7 c 0.92 10.09 5.58 19.42 13.1 26.29 c 7.52 6.85 17.21 10.63 27.3 10.63 c 0.33 0 0.66 -0.01 0.99 -0.01 c 0.9 -0.02 1.83 -0.08 2.77 -0.16 c 10.8 -0.99 20.58 -6.13 27.52 -14.48 c 6.94 -8.35 10.22 -18.89 9.22 -29.7" stroke-linecap="round"/>
</g>
		<g transform="matrix(1 0 0 1 -64.6509 71.0999)">
<path style="stroke: none; stroke-width: 1; stroke-dasharray: none; stroke-linecap: butt; stroke-dashoffset: 0; stroke-linejoin: miter; stroke-miterlimit: 4; is-custom-font: none; font-file-url: none; fill: rgb(0,0,0); fill-rule: nonzero; opacity: 1;" transform=" translate(-77.0791, -212.83)" d="M 100.34 234.93 c -5.91 6 -13.8 9.34 -22.22 9.42 h -0.28 c -17.23 0 -31.37 -14.03 -31.51 -31.27 c -0.07 -8.42 3.14 -16.37 9.04 -22.37 c 5.9 -6 13.79 -9.34 22.21 -9.42 h 0.28 c 3.07 0 6.11 0.45 9.05 1.34 l 5.68 -7.65 a 40.175 40.175 0 0 0 -14.73 -2.77 h -0.35 c -10.85 0.09 -21.01 4.4 -28.63 12.14 c -7.61 7.73 -11.76 17.97 -11.66 28.82 c 0.19 22.21 18.4 40.28 40.61 40.28 h 0.35 c 10.85 -0.09 21.02 -4.4 28.63 -12.13 c 4.79 -4.87 8.29 -10.87 10.13 -17.36 l -9.56 -0.04 c -1.52 4.1 -3.89 7.8 -7.04 11.01 m 10.39 -45.94 l -5.91 7.52 c 0.95 1.56 1.76 3.2 2.41 4.86 l 9.58 -0.1 a 40.615 40.615 0 0 0 -6.08 -12.28" stroke-linecap="round"/>
</g>
</g>
</g>
</svg>