<?xml version="1.0" standalone="no"?>
<!DOCTYPE svg PUBLIC "-//W3C//DTD SVG 20010904//EN"
 "http://www.w3.org/TR/2001/REC-SVG-20010904/DTD/svg10.dtd">
<svg version="1.0" xmlns="http://www.w3.org/2000/svg"
 width="173.000000pt" height="186.000000pt" viewBox="0 0 173.000000 186.000000"
 preserveAspectRatio="xMidYMid meet">
<metadata>
Created by potrace 1.16, written by Peter Selinger 2001-2019
</metadata>
<g transform="translate(0.000000,186.000000) scale(0.100000,-0.100000)"
fill="#000000" stroke="none">
<path d="M1182 1521 c-11 -6 -11 -17 -2 -51 6 -23 9 -44 7 -46 -2 -3 -76 -3
-163 -2 -142 3 -161 7 -109 23 8 2 12 11 9 19 -7 19 -133 27 -153 10 -18 -16
-5 -34 25 -34 37 0 51 -38 29 -80 -9 -17 -14 -38 -11 -46 9 -25 32 -15 49 21
l17 35 169 0 169 0 7 -29 c5 -26 1 -35 -38 -70 -49 -45 -64 -79 -41 -88 9 -3
28 10 50 36 20 22 39 41 44 41 10 0 38 -92 42 -135 3 -26 7 -30 33 -30 24 0
31 5 33 23 2 13 -3 31 -11 40 -12 14 -47 104 -47 120 0 13 83 -9 111 -29 40
-28 73 -100 65 -143 -10 -50 -42 -94 -86 -116 -22 -11 -40 -26 -40 -34 0 -13
-31 -46 -43 -46 -4 0 -7 18 -7 40 0 51 -19 97 -56 134 -36 35 -65 48 -128 55
l-49 6 -24 69 c-12 39 -23 74 -23 78 0 4 16 8 35 8 40 0 45 -11 13 -32 -24
-16 -17 -38 12 -38 47 0 66 64 30 100 -15 15 -33 20 -74 20 -69 0 -81 -13 -61
-69 l14 -41 -162 1 c-123 0 -155 3 -134 11 18 6 27 16 25 27 -3 13 -18 17 -81
19 -71 3 -78 1 -75 -15 2 -10 14 -19 26 -21 35 -5 47 -41 28 -86 -9 -21 -13
-42 -10 -47 11 -19 34 -7 50 26 l16 35 168 0 168 0 7 -30 c6 -25 1 -35 -40
-74 -34 -32 -46 -50 -43 -67 5 -35 24 -33 46 3 12 18 30 39 42 46 18 11 21 10
31 -15 6 -16 13 -52 16 -81 7 -64 29 -82 65 -53 l23 19 -21 29 c-11 15 -28 50
-37 76 -14 42 -14 49 -1 54 21 8 97 -23 122 -50 74 -79 43 -207 -60 -246 -16
-6 -28 -17 -28 -24 0 -12 -39 -56 -41 -46 0 2 -2 23 -4 47 -9 93 -83 168 -177
179 -60 7 -62 9 -83 80 -8 29 -18 59 -21 68 -5 12 2 15 30 15 41 0 45 -8 16
-33 -25 -21 -18 -37 14 -37 29 0 49 22 49 55 -1 44 -19 55 -96 55 l-70 0 7
-32 c15 -80 29 -73 -142 -71 -85 1 -156 3 -158 6 -3 3 7 8 21 11 18 5 25 12
23 24 -3 14 -17 18 -81 20 -71 3 -78 1 -75 -15 2 -10 14 -19 26 -21 37 -5 49
-44 28 -90 -17 -38 -18 -39 -69 -35 -64 5 -127 -24 -171 -80 -26 -32 -31 -49
-34 -105 -3 -61 -1 -71 27 -115 41 -64 99 -91 181 -85 40 3 70 12 94 29 44 29
86 108 86 160 0 49 -31 121 -65 147 -19 15 -25 27 -20 42 3 11 10 20 14 20 4
0 33 -54 66 -120 32 -66 64 -120 71 -120 7 0 56 56 110 125 54 69 101 125 105
125 4 0 10 -8 13 -17 6 -16 -26 -52 -46 -53 -13 0 -56 -84 -62 -120 -17 -98
74 -219 166 -220 20 -1 15 -7 -31 -49 -51 -45 -61 -71 -27 -71 7 0 105 75 218
168 113 92 293 239 401 327 187 152 226 195 179 195 -10 0 -29 -11 -42 -25
-32 -34 -40 -32 -40 15 0 70 -58 155 -123 179 -16 6 -47 11 -71 11 l-42 0 -22
70 c-28 90 -28 90 8 90 33 0 39 -14 13 -28 -19 -11 -11 -42 12 -42 21 0 55 36
55 60 0 37 -35 60 -92 60 -29 0 -59 -4 -66 -9z m-452 -517 c0 -3 -30 -45 -67
-92 -38 -47 -73 -93 -79 -101 -10 -12 -21 4 -63 87 -28 56 -51 104 -51 107 0
3 59 5 130 5 72 0 130 -3 130 -6z m-403 -90 l22 -6 -25 -49 c-13 -28 -34 -59
-44 -69 -25 -25 -25 -35 2 -54 28 -20 58 -4 58 30 0 13 12 48 26 76 l26 52 24
-29 c38 -48 49 -100 30 -150 -37 -95 -121 -128 -214 -84 -74 36 -101 122 -63
198 24 45 39 59 88 77 45 16 42 15 70 8z m594 -5 c131 -44 149 -218 28 -279
-161 -83 -299 124 -165 249 20 18 27 21 31 10 26 -72 32 -99 28 -121 -6 -33
26 -55 57 -38 25 13 26 37 2 64 -17 19 -42 88 -42 115 0 14 18 14 61 0z"/>
</g>
</svg>
