<svg xmlns="http://www.w3.org/2000/svg" xmlns:xlink="http://www.w3.org/1999/xlink" version="1.1" width="1000" height="1000" viewBox="0 0 1000 1000" xml:space="preserve">
<desc>Created with Fabric.js 3.5.0</desc>
<defs>
</defs>
<rect x="0" y="0" width="100%" height="100%" fill="rgba(255,255,255,0)"/>
<g transform="matrix(3.4132 0 0 3.4132 496.8555 503.1448)" id="956917">
<g style="" vector-effect="non-scaling-stroke">
		<g transform="matrix(1 0 0 1 0.005 0)">
<path style="stroke: none; stroke-width: 1; stroke-dasharray: none; stroke-linecap: butt; stroke-dashoffset: 0; stroke-linejoin: miter; stroke-miterlimit: 4; is-custom-font: none; font-file-url: none; fill: rgb(252,185,25); fill-opacity: 0; fill-rule: nonzero; opacity: 1;" transform=" translate(-141.735, -141.73)" d="M 0 248.03 c 0 19.48 15.95 35.43 35.44 35.43 h 212.59 c 19.49 0 35.44 -15.95 35.44 -35.43 V 35.43 C 283.47 15.95 267.52 0 248.03 0 H 35.44 C 15.95 0 0 15.95 0 35.43 v 212.6 z" stroke-linecap="round"/>
</g>
		<g transform="matrix(1 0 0 1 6.7603 1.975)">
<path style="stroke: none; stroke-width: 1; stroke-dasharray: none; stroke-linecap: butt; stroke-dashoffset: 0; stroke-linejoin: miter; stroke-miterlimit: 4; is-custom-font: none; font-file-url: none; fill: rgb(0,0,0); fill-rule: nonzero; opacity: 1;" transform=" translate(-148.4903, -143.705)" d="M 146.58 83.78 v -0.4 c 0 -27.76 -20.08 -46.07 -52.37 -46.07 H 52.08 c -6.89 0 -12.21 5.31 -12.21 12.21 v 114.59 c 0 6.69 5.31 12.01 12.21 12.01 c 6.69 0 12.01 -5.32 12.01 -12.01 v -33.27 h 27.36 c 30.32 0 55.13 -16.15 55.13 -47.06 M 64.09 59.36 h 28.15 c 18.11 0 29.74 8.47 29.74 24.62 v 0.39 c 0 14.37 -11.43 24.62 -29.74 24.62 H 64.09 V 59.36 z m 78.43 145.02 c 0.76 1.26 1.41 2.57 1.93 3.9 l 7.69 -0.08 a 32.677 32.677 0 0 0 -4.88 -9.86 l -4.74 6.04 z m -3.59 30.85 c -4.74 4.82 -11.08 7.5 -17.84 7.56 h -0.22 c -13.83 0 -25.18 -11.26 -25.3 -25.11 c -0.06 -6.76 2.52 -13.14 7.26 -17.96 s 11.07 -7.5 17.84 -7.57 h 0.22 c 2.46 0 4.91 0.36 7.27 1.07 l 4.56 -6.15 a 32.237 32.237 0 0 0 -11.83 -2.23 h -0.28 c -8.71 0.07 -16.87 3.53 -22.98 9.75 c -6.11 6.21 -9.44 14.43 -9.36 23.14 c 0.15 17.84 14.77 32.34 32.61 32.34 h 0.28 c 8.71 -0.07 16.88 -3.53 22.99 -9.74 a 32.63 32.63 0 0 0 8.13 -13.94 l -7.67 -0.03 c -1.26 3.32 -3.16 6.3 -5.68 8.87 m 118.04 -20.74 c -0.74 -8.1 -4.48 -15.59 -10.52 -21.1 c -6.04 -5.5 -13.82 -8.53 -21.92 -8.53 c -1 0 -2.02 0.05 -3.02 0.14 c -1.79 0.16 -3.57 0.47 -5.28 0.92 l 3.25 6.75 c 0.89 -0.18 1.79 -0.31 2.69 -0.39 c 0.57 -0.06 1.15 -0.09 1.73 -0.1 c 0.21 -0.01 0.41 -0.01 0.62 -0.01 c 6.29 0 12.33 2.35 17.01 6.62 c 4.69 4.28 7.59 10.09 8.17 16.38 c 0.62 6.72 -1.42 13.29 -5.75 18.5 c -4.33 5.2 -10.42 8.41 -17.15 9.02 c -0.79 0.07 -1.59 0.11 -2.37 0.11 c -6.28 0 -12.31 -2.35 -16.99 -6.63 c -4.68 -4.28 -7.58 -10.09 -8.16 -16.38 c -0.55 -5.92 1 -11.82 4.36 -16.68 l -3.7 -7.12 c -0.18 0.21 -0.36 0.41 -0.54 0.63 c -5.57 6.7 -8.2 15.17 -7.4 23.85 c 0.74 8.1 4.48 15.59 10.52 21.1 c 6.03 5.5 13.82 8.53 21.92 8.53 c 0.26 0 0.53 0 0.79 -0.01 c 0.72 -0.02 1.47 -0.06 2.22 -0.13 c 8.67 -0.79 16.52 -4.92 22.1 -11.62 c 5.59 -6.7 8.22 -15.17 7.42 -23.85" stroke-linecap="round"/>
</g>
		<g transform="matrix(1 0 0 1 31.5178 43.25)">
<path style="stroke: none; stroke-width: 1; stroke-dasharray: none; stroke-linecap: butt; stroke-dashoffset: 0; stroke-linejoin: miter; stroke-miterlimit: 4; is-custom-font: none; font-file-url: none; fill: rgb(0,0,0); fill-rule: nonzero; opacity: 1;" transform=" translate(-173.2479, -184.98)" d="M 208.95 201.19 c 3.66 7.88 9.11 14.77 12.66 18.27 c 1.35 1.38 2.65 1.67 3.51 1.67 c 1.49 0 2.83 -0.88 3.43 -2.24 c 0.65 -1.48 0.28 -3.19 -0.98 -4.57 c -4.08 -4.35 -8.67 -9.7 -11.83 -16.32 l -9.22 -18.06 c -0.3 -0.76 -0.42 -1.56 -0.38 -2.36 c 0.06 -0.97 0.37 -1.91 0.91 -2.73 l 0.69 -0.96 c 0.22 -0.31 0.57 -0.73 0.9 -1.13 c 0.3 -0.37 0.7 -0.88 0.89 -1.14 h 0.01 c 3.19 -4.33 4.09 -5.79 4.98 -9.19 c 0.88 -3.33 0.35 -6.53 -1.48 -9.01 c -2.09 -2.83 -5.24 -4.46 -8.85 -4.58 c -0.13 0 -0.26 -0.01 -0.39 -0.01 c -5.01 0 -8.98 3.57 -9.73 4.29 a 3.628 3.628 0 0 0 -0.08 5.12 c 0.68 0.69 1.59 1.08 2.55 1.08 c 0.92 0 1.84 -0.35 2.58 -0.99 c 0.68 -0.59 2.77 -2.38 4.68 -2.38 h 0.12 c 1.6 0.04 2.41 0.78 2.89 1.32 c 0.66 0.77 1.09 2.28 0.65 3.69 c -0.33 1.05 -0.65 2.03 -3.74 6.35 c -0.63 0.82 -2.54 3.19 -3.03 3.88 c -0.37 0.51 -1 1.37 -1.83 2.5 l -0.3 0.41 h -44.85 l -6.74 -13.76 c 1.89 -0.52 4.1 -1.2 7.21 -1.37 l 2.1 -0.14 c 2.41 -0.17 4.02 -1.61 4.02 -3.48 c 0 -1.98 -1.8 -3.3 -4.37 -3.3 h -9.36 c -4.68 0 -7.12 -0.04 -9.27 -0.07 c -1.63 -0.03 -3.04 -0.05 -5.08 -0.05 c -3.16 0 -4.9 1.16 -4.9 3.28 c 0 4.46 5.79 6.8 11.52 6.8 c 0.25 0 0.5 -0.01 0.75 -0.02 l 7.59 15.4 l -28.8 37.69 c -1.22 1.6 -0.92 3.9 0.68 5.12 c 0.42 0.33 0.93 0.54 1.59 0.66 c 0.04 0.01 0.08 0.01 0.11 0.02 c 0.05 0.01 0.09 0.01 0.14 0.03 l 0.05 0.01 c 0.03 0 0.05 0.01 0.08 0.01 c 0.08 0.02 0.16 0.03 0.25 0.03 c 0.02 0 0.05 0 0.08 -0.01 c 0.03 0.01 0.06 0.01 0.09 0.01 h 48.57 c 0.22 0 0.46 -0.03 0.7 -0.07 c 1.85 -0.27 3.5 -1.31 4.54 -2.85 a 32492.467 32492.467 0 0 0 25.06 -33.99 l 8.63 17.14 z m -80.3 12.46 l 22.12 -28.94 l 14.24 28.94 h -36.36 z m 50.44 -13.16 c -2.87 3.88 -5.5 7.43 -7.42 10.04 l -14.38 -29.1 h 35.88 c -4.06 5.51 -9.38 12.7 -14.08 19.06" stroke-linecap="round"/>
</g>
</g>
</g>
</svg>