<svg xmlns="http://www.w3.org/2000/svg" viewBox="0 0 283.46 283.46"><path fill="#007ac9" d="M0 248.03c0 19.48 15.95 35.43 35.44 35.43h212.59c19.49 0 35.44-15.95 35.44-35.43V35.43C283.47 15.95 267.52 0 248.03 0H35.44C15.95 0 0 15.95 0 35.43v212.6z"/><path d="M146.58 83.78v-.4c0-27.76-20.08-46.07-52.37-46.07H52.08c-6.89 0-12.21 5.31-12.21 12.21v114.59c0 6.69 5.31 12.01 12.21 12.01 6.69 0 12.01-5.32 12.01-12.01v-33.27h27.36c30.32 0 55.13-16.15 55.13-47.06M64.09 59.36h28.15c18.11 0 29.74 8.47 29.74 24.62v.39c0 14.37-11.43 24.62-29.74 24.62H64.09V59.36zm78.43 145.02c.76 1.26 1.41 2.57 1.93 3.9l7.69-.08a32.677 32.677 0 0 0-4.88-9.86l-4.74 6.04zm-3.59 30.85c-4.74 4.82-11.08 7.5-17.84 7.56h-.22c-13.83 0-25.18-11.26-25.3-25.11-.06-6.76 2.52-13.14 7.26-17.96s11.07-7.5 17.84-7.57h.22c2.46 0 4.91.36 7.27 1.07l4.56-6.15a32.237 32.237 0 0 0-11.83-2.23h-.28c-8.71.07-16.87 3.53-22.98 9.75-6.11 6.21-9.44 14.43-9.36 23.14.15 17.84 14.77 32.34 32.61 32.34h.28c8.71-.07 16.88-3.53 22.99-9.74a32.63 32.63 0 0 0 8.13-13.94l-7.67-.03c-1.26 3.32-3.16 6.3-5.68 8.87m118.04-20.74c-.74-8.1-4.48-15.59-10.52-21.1-6.04-5.5-13.82-8.53-21.92-8.53-1 0-2.02.05-3.02.14-1.79.16-3.57.47-5.28.92l3.25 6.75c.89-.18 1.79-.31 2.69-.39.57-.06 1.15-.09 1.73-.1.21-.01.41-.01.62-.01 6.29 0 12.33 2.35 17.01 6.62 4.69 4.28 7.59 10.09 8.17 16.38.62 6.72-1.42 13.29-5.75 18.5-4.33 5.2-10.42 8.41-17.15 9.02-.79.07-1.59.11-2.37.11-6.28 0-12.31-2.35-16.99-6.63-4.68-4.28-7.58-10.09-8.16-16.38-.55-5.92 1-11.82 4.36-16.68l-3.7-7.12c-.18.21-.36.41-.54.63-5.57 6.7-8.2 15.17-7.4 23.85.74 8.1 4.48 15.59 10.52 21.1 6.03 5.5 13.82 8.53 21.92 8.53.26 0 .53 0 .79-.01.72-.02 1.47-.06 2.22-.13 8.67-.79 16.52-4.92 22.1-11.62 5.59-6.7 8.22-15.17 7.42-23.85" fill="#ffffff"/><path d="M208.95 201.19c3.66 7.88 9.11 14.77 12.66 18.27 1.35 1.38 2.65 1.67 3.51 1.67 1.49 0 2.83-.88 3.43-2.24.65-1.48.28-3.19-.98-4.57-4.08-4.35-8.67-9.7-11.83-16.32l-9.22-18.06c-.3-.76-.42-1.56-.38-2.36.06-.97.37-1.91.91-2.73l.69-.96c.22-.31.57-.73.9-1.13.3-.37.7-.88.89-1.14h.01c3.19-4.33 4.09-5.79 4.98-9.19.88-3.33.35-6.53-1.48-9.01-2.09-2.83-5.24-4.46-8.85-4.58-.13 0-.26-.01-.39-.01-5.01 0-8.98 3.57-9.73 4.29a3.628 3.628 0 0 0-.08 5.12c.68.69 1.59 1.08 2.55 1.08.92 0 1.84-.35 2.58-.99.68-.59 2.77-2.38 4.68-2.38h.12c1.6.04 2.41.78 2.89 1.32.66.77 1.09 2.28.65 3.69-.33 1.05-.65 2.03-3.74 6.35-.63.82-2.54 3.19-3.03 3.88-.37.51-1 1.37-1.83 2.5l-.3.41h-44.85l-6.74-13.76c1.89-.52 4.1-1.2 7.21-1.37l2.1-.14c2.41-.17 4.02-1.61 4.02-3.48 0-1.98-1.8-3.3-4.37-3.3h-9.36c-4.68 0-7.12-.04-9.27-.07-1.63-.03-3.04-.05-5.08-.05-3.16 0-4.9 1.16-4.9 3.28 0 4.46 5.79 6.8 11.52 6.8.25 0 .5-.01.75-.02l7.59 15.4-28.8 37.69c-1.22 1.6-.92 3.9.68 5.12.42.33.93.54 1.59.66.04.01.08.01.11.02.05.01.09.01.14.03l.05.01c.03 0 .05.01.08.01.08.02.16.03.25.03.02 0 .05 0 .08-.01.03.01.06.01.09.01h48.57c.22 0 .46-.03.7-.07 1.85-.27 3.5-1.31 4.54-2.85a32492.467 32492.467 0 0 0 25.06-33.99l8.63 17.14zm-80.3 12.46l22.12-28.94 14.24 28.94h-36.36zm50.44-13.16c-2.87 3.88-5.5 7.43-7.42 10.04l-14.38-29.1h35.88c-4.06 5.51-9.38 12.7-14.08 19.06" fill="#ffffff"/></svg>